<svg width="150" height="41" viewBox="0 0 150 41" fill="none" xmlns="http://www.w3.org/2000/svg">
<g filter="url(#filter0_d)">
<path d="M21.748 11.804C20.98 11.18 20.212 10.724 19.444 10.436C18.676 10.124 17.932 9.968 17.212 9.968C16.3 9.968 15.556 10.184 14.98 10.616C14.404 11.048 14.116 11.612 14.116 12.308C14.116 12.788 14.26 13.184 14.548 13.496C14.836 13.808 15.208 14.084 15.664 14.324C16.144 14.54 16.672 14.732 17.248 14.9C17.848 15.068 18.436 15.248 19.012 15.44C21.316 16.208 22.996 17.24 24.052 18.536C25.132 19.808 25.672 21.476 25.672 23.54C25.672 24.932 25.432 26.192 24.952 27.32C24.496 28.448 23.812 29.42 22.9 30.236C22.012 31.028 20.908 31.64 19.588 32.072C18.292 32.528 16.816 32.756 15.16 32.756C11.728 32.756 8.548 31.736 5.62 29.696L8.644 24.008C9.7 24.944 10.744 25.64 11.776 26.096C12.808 26.552 13.828 26.78 14.836 26.78C15.988 26.78 16.84 26.516 17.392 25.988C17.968 25.46 18.256 24.86 18.256 24.188C18.256 23.78 18.184 23.432 18.04 23.144C17.896 22.832 17.656 22.556 17.32 22.316C16.984 22.052 16.54 21.812 15.988 21.596C15.46 21.38 14.812 21.14 14.044 20.876C13.132 20.588 12.232 20.276 11.344 19.94C10.48 19.58 9.7 19.112 9.004 18.536C8.332 17.96 7.78 17.24 7.348 16.376C6.94 15.488 6.736 14.372 6.736 13.028C6.736 11.684 6.952 10.472 7.384 9.392C7.84 8.288 8.464 7.352 9.256 6.584C10.072 5.792 11.056 5.18 12.208 4.748C13.384 4.316 14.692 4.1 16.132 4.1C17.476 4.1 18.88 4.292 20.344 4.676C21.808 5.036 23.212 5.576 24.556 6.296L21.748 11.804ZM43.0054 20.084C42.7894 19.172 42.3454 18.44 41.6734 17.888C41.0014 17.336 40.1854 17.06 39.2254 17.06C38.2174 17.06 37.3894 17.324 36.7414 17.852C36.1174 18.38 35.7214 19.124 35.5534 20.084H43.0054ZM35.3734 23.864C35.3734 26.672 36.6934 28.076 39.3334 28.076C40.7494 28.076 41.8174 27.5 42.5374 26.348H48.8374C47.5654 30.572 44.3854 32.684 39.2974 32.684C37.7374 32.684 36.3094 32.456 35.0134 32C33.7174 31.52 32.6014 30.848 31.6654 29.984C30.7534 29.12 30.0454 28.088 29.5414 26.888C29.0374 25.688 28.7854 24.344 28.7854 22.856C28.7854 21.32 29.0254 19.94 29.5054 18.716C29.9854 17.468 30.6694 16.412 31.5574 15.548C32.4454 14.684 33.5134 14.024 34.7614 13.568C36.0334 13.088 37.4614 12.848 39.0454 12.848C40.6054 12.848 42.0094 13.088 43.2574 13.568C44.5054 14.024 45.5614 14.696 46.4254 15.584C47.2894 16.472 47.9494 17.564 48.4054 18.86C48.8614 20.132 49.0894 21.572 49.0894 23.18V23.864H35.3734ZM59.33 2.12V32H52.814V2.12H59.33ZM70.2988 2.12V32H63.7828V2.12H70.2988ZM75.3635 32V4.856H82.4195L95.4515 21.452V4.856H102.472V32H95.4515L82.4195 15.404V32H75.3635ZM123.608 10.832H115.22V15.368H123.14V21.344H115.22V26.024H123.608V32H108.164V4.856H123.608V10.832ZM138.992 10.832V32H131.936V10.832H126.14V4.856H144.788V10.832H138.992Z" fill="white"/>
</g>
<defs>
<filter id="filter0_d" x="0.620117" y="0.119995" width="149.168" height="40.636" filterUnits="userSpaceOnUse" color-interpolation-filters="sRGB">
<feFlood flood-opacity="0" result="BackgroundImageFix"/>
<feColorMatrix in="SourceAlpha" type="matrix" values="0 0 0 0 0 0 0 0 0 0 0 0 0 0 0 0 0 0 127 0"/>
<feOffset dy="3"/>
<feGaussianBlur stdDeviation="2.5"/>
<feColorMatrix type="matrix" values="0 0 0 0 0 0 0 0 0 0 0 0 0 0 0 0 0 0 0.25 0"/>
<feBlend mode="normal" in2="BackgroundImageFix" result="effect1_dropShadow"/>
<feBlend mode="normal" in="SourceGraphic" in2="effect1_dropShadow" result="shape"/>
</filter>
</defs>
</svg>
